<svg xmlns="http://www.w3.org/2000/svg" width="116" height="74" fill="none"><path fill="#463E33" d="M96.046 44.09c0-1.619-2.171-1.023-2.171-2.045 0-6.259-.043-6.94-.043-11.41 0-4.343-1.405-8.303-6.94-8.303-2.725-.043-5.28 1.448-6.514 3.917-.98-2.597-3.577-4.215-6.302-3.917-2.171-.043-4.27.873-5.632 2.576V22.46h-8.41c0 1.618 2.183 1.064 2.183 2.129v19.479000000000003h6.227V26.61c1.192-1.83 2.567-2.916 3.759-2.916 2.214 0 2.682 2.895 2.682 6.173.085 6.004.085 7.11.085 14.22v.001h8.26c0-1.618-2.17-.98-2.17-2.044v-11.41c-.044-.767-.086-2.427-.171-3.151.894-1.32 2.086-3.492 4.087-3.492 2.257 0 2.683 2.598 2.725 5.876.085 5.961.085 7.11.085 14.22v.001zM49.05 22.332c6.26.085 9.453 5.578 9.453 11.028 0 5.407-3.109 10.73-9.538 10.73-6.6 0-9.835-5.11-9.835-10.603s3.32-11.07 9.92-11.155m2.853 16.307V27.4c0-2.385-1.49-4.003-2.81-4.003-1.022.128-1.874.596-2.512 1.406a3.66 3.66 0 0 0-.724 2.724c0 2.938-.213 8.303-.213 11.113 0 2.64 1.575 4.599 3.236 4.599 1.49 0 3.023-1.959 3.023-4.599M30.945 22.417c4.385 0 6.216 2.597 6.216 4.982a3.94 3.94 0 0 1-.98 2.895 3.9 3.9 0 0 1-2.767 1.32c-.851 0-1.66-.34-2.256-.98a3.52 3.52 0 0 0 1.958-3.363c0-2.257-.809-3.79-2.64-3.79-4.045 0-5.364 5.663-5.364 10.134-.043 0-.043 8.005-.043 8.728.383.64 2.086.298 2.086 1.746H16.681c0-1.575 1.959-1.064 2.086-1.958-.042-5.493.128-12.093.128-17.585 0-1.022-2.171-.383-2.171-2.044l8.388.043v2.895c1.362-1.873 3.49-3.023 5.833-3.023"/><path fill="#463E33" d="M12.975 14.327c4.513 0 6.174 2.172 6.174 4.045.085.767-.17 1.49-.681 2.044-.468.596-1.192.937-1.959.98a3.02 3.02 0 0 1-2.086-.98 4.3 4.3 0 0 0 .98-2.086c.212-.767.042-1.618-.47-2.3-.51-.638-1.277-.979-2.128-.979-2.725 0-2.938 3.151-2.81 4.343.17 1.405.98 3.108 2.81 3.108h2.3v.894H12.08c.043 4.343.043 8.9.043 13.242v5.365c0 1.064 2.214.426 2.214 2.086H3.608c0-1.533 1.831-1.107 2.13-1.83l.084-18.863h-2.98v-.894h2.98c.085-4.172 1.703-8.175 7.153-8.175M106.518 52.03c4.343 0 6.983 2.214 6.983 8.303v11.41c0 1.065 2.171.426 2.171 2.044h-8.26c0-7.11 0-8.217-.085-14.22 0-3.28-.468-6.175-2.682-6.175-1.192 0-2.555 1.065-3.747 2.896v15.71c.341.682 2.129.341 2.129 1.79h-10.56c0-1.448 1.789-1.108 2.087-1.832l.085-17.67c0-1.064-2.171-.468-2.171-2.086l8.43-.085v2.512c1.362-1.703 3.449-2.64 5.62-2.597M89.568 67.699c.255-.384.596-1.363 1.022-1.363.17 0 .383.085.51.213a.63.63 0 0 1 .171.553C91.271 69.53 89.1 74 81.904 74c-6.557 0-9.75-5.195-9.75-10.644 0-5.45 3.32-11.156 9.963-11.156 5.11 0 7.408 2.597 7.408 5.365 0 3.321-3.193 6.983-10.942 6.983.34 2.427 1.746 5.918 5.28 5.918 2.256.256 4.47-.809 5.705-2.767m-11.496-6.685c.043.809.128 1.618.298 2.427 4.47 0 5.706-3.492 5.706-6.046 0-1.831-.852-4.3-2.3-4.3-2.81 0-3.704 4.938-3.704 7.919"/><path fill="#463E33" fill-rule="evenodd" d="M71.542 73.787c-3.15 0-7.409.128-8.26-3.108-1.022 2.001-3.066 3.236-5.28 3.321-6.301 0-9.537-5.578-9.537-11.113 0-5.578 3.236-11.198 9.878-11.198 1.362 0 2.724.373 3.873 1.054v-8.675h6.227v26.61c-.039 1.037.519 3.11 3.099 3.11m-9.367-13.88v7.536c0 2.725-1.065 5.578-3.279 5.578-3.661 0-3.917-8.218-4.002-9.92-.042-1.065.085-10.39 4.002-10.39 1.959 0 3.279 1.49 3.279 7.196" clip-rule="evenodd"/><path fill="#463E33" d="M44.602 67.699c.256-.384.596-1.363 1.022-1.363.17 0 .383.085.51.213a.63.63 0 0 1 .171.553c0 2.427-2.171 6.898-9.367 6.898-6.557 0-9.75-5.195-9.75-10.644 0-5.45 3.32-11.156 9.963-11.156 5.11 0 7.408 2.597 7.408 5.365 0 3.321-3.193 6.983-10.942 6.983.34 2.427 1.746 5.918 5.28 5.918 2.256.256 4.47-.809 5.705-2.767m-11.496-6.685c.043.809.128 1.618.298 2.427 4.47 0 5.705-3.492 5.705-6.046 0-1.831-.851-4.3-2.299-4.3-2.81 0-3.704 4.938-3.704 7.919M12.837 15.051c-2.725 0-2.938 3.151-2.81 4.343.17 1.405.98 3.108 2.81 3.108h2.3v.894h-3.024c.043 4.343.043 8.9.043 13.242v5.365c0 1.064 2.214.426 2.214 2.086H3.64c0-1.533 1.831-1.107 2.13-1.83l.084-18.863h-2.98v-.894h2.98c.046-2.225.527-4.403 1.794-5.95.598-.727 1.435-3.034 0-6.44-.13-.355-.635-1.373-1.623-2.608.902.426 2.114 1.916 2.608 2.608 1 1.33 1.408 3.645 1.394 4.722.835-.325 1.82-.507 2.98-.507.671-.01 2.704-.095 5.727-2.14-2 2.513-4.737 2.822-5.897 2.864"/><path fill="#CDCDCD" d="M18.52 12.425c-.055-2.598 1.087-4.158 1.665-4.613 2.337-2.226 3.663-.25 3.65.689-.04 3.13-3.596 3.952-5.314 3.924"/><path fill="#fff" d="M18.52 12.244c.169-2.294.977-3.591 1.47-4.04 2.03-2.16 3.146-.497 3.052.135-.288 2.773-3.165 3.79-4.521 3.905"/><path fill="#9B9B9B" d="M21.182 11.853c-.364.631-1.957.658-2.708.592-.013-.796.04-2.437.362-2.63.322-.192.156.459.223.707.005-.19.341-.591.443-.585.203.012.061.684-.084 1.056.19-.329.623-.934.84-.725.215.209-.215.857-.458 1.156.252-.223.788-.618.923-.414.134.204-.32.674-.563.884.918-.353 1.064-.174 1.022-.04"/><path fill="#0A3019" fill-rule="evenodd" d="M22.662 9.055a.046.046 0 0 0-.063.014c-1.082 1.676-2.538 2.457-3.747 3.106l-.227.122a28 28 0 0 0 .374-.696c.167-.314.352-.654.56-.996.416-.685.926-1.378 1.572-1.887a.046.046 0 0 0-.056-.072c-.66.52-1.175 1.223-1.594 1.912-.21.344-.395.686-.562 1l-.095.178q-.127.24-.24.448c.14-.864.628-2.526 1.733-3.788a.046.046 0 1 0-.069-.06c-1.232 1.407-1.704 3.3-1.787 4.073l-.007.062.062-.013.16-.033c.522-.107 1.233-.254 1.948-.502.79-.274 1.59-.675 2.15-1.29a.045.045 0 1 0-.067-.06c-.545.598-1.329.992-2.113 1.264-.646.224-1.29.365-1.794.47l.095-.052c1.209-.648 2.685-1.44 3.78-3.137a.045.045 0 0 0-.013-.063" clip-rule="evenodd"/><g fill="#FD6565" style="mix-blend-mode:multiply"><path d="M18.52 12.425c-.055-2.598 1.087-4.158 1.665-4.613 2.337-2.226 3.663-.25 3.65.689-.04 3.13-3.596 3.952-5.314 3.924"/><path d="M18.52 12.244c.169-2.294.977-3.591 1.47-4.04 2.03-2.16 3.146-.497 3.052.135-.288 2.773-3.165 3.79-4.521 3.905"/><path d="M21.182 11.853c-.364.631-1.957.658-2.708.592-.013-.796.04-2.437.362-2.63.322-.192.156.459.223.707.005-.19.341-.591.443-.585.203.012.061.684-.084 1.056.19-.329.623-.934.84-.725.215.209-.215.857-.458 1.156.252-.223.788-.618.923-.414.134.204-.32.674-.563.884.918-.353 1.064-.174 1.022-.04"/><path fill-rule="evenodd" d="M22.662 9.055a.046.046 0 0 0-.063.014c-1.082 1.676-2.538 2.457-3.747 3.106l-.227.122a28 28 0 0 0 .374-.696c.167-.314.352-.654.56-.996.416-.685.926-1.378 1.572-1.887a.046.046 0 0 0-.056-.072c-.66.52-1.175 1.223-1.594 1.912-.21.344-.395.686-.562 1l-.095.178q-.127.24-.24.448c.14-.864.628-2.526 1.733-3.788a.046.046 0 1 0-.069-.06c-1.232 1.407-1.704 3.3-1.787 4.073l-.007.062.062-.013.16-.033c.522-.107 1.233-.254 1.948-.502.79-.274 1.59-.675 2.15-1.29a.045.045 0 1 0-.067-.06c-.545.598-1.329.992-2.113 1.264-.646.224-1.29.365-1.794.47l.095-.052c1.209-.648 2.685-1.44 3.78-3.137a.045.045 0 0 0-.013-.063" clip-rule="evenodd"/></g><g fill="#FD6565" style="mix-blend-mode:soft-light"><path d="M18.52 12.425c-.055-2.598 1.087-4.158 1.665-4.613 2.337-2.226 3.663-.25 3.65.689-.04 3.13-3.596 3.952-5.314 3.924"/><path d="M18.52 12.244c.169-2.294.977-3.591 1.47-4.04 2.03-2.16 3.146-.497 3.052.135-.288 2.773-3.165 3.79-4.521 3.905"/><path d="M21.182 11.853c-.364.631-1.957.658-2.708.592-.013-.796.04-2.437.362-2.63.322-.192.156.459.223.707.005-.19.341-.591.443-.585.203.012.061.684-.084 1.056.19-.329.623-.934.84-.725.215.209-.215.857-.458 1.156.252-.223.788-.618.923-.414.134.204-.32.674-.563.884.918-.353 1.064-.174 1.022-.04"/><path fill-rule="evenodd" d="M22.662 9.055a.046.046 0 0 0-.063.014c-1.082 1.676-2.538 2.457-3.747 3.106l-.227.122a28 28 0 0 0 .374-.696c.167-.314.352-.654.56-.996.416-.685.926-1.378 1.572-1.887a.046.046 0 0 0-.056-.072c-.66.52-1.175 1.223-1.594 1.912-.21.344-.395.686-.562 1l-.095.178q-.127.24-.24.448c.14-.864.628-2.526 1.733-3.788a.046.046 0 1 0-.069-.06c-1.232 1.407-1.704 3.3-1.787 4.073l-.007.062.062-.013.16-.033c.522-.107 1.233-.254 1.948-.502.79-.274 1.59-.675 2.15-1.29a.045.045 0 1 0-.067-.06c-.545.598-1.329.992-2.113 1.264-.646.224-1.29.365-1.794.47l.095-.052c1.209-.648 2.685-1.44 3.78-3.137a.045.045 0 0 0-.013-.063" clip-rule="evenodd"/></g><path fill="#CDCDCD" d="M.55 5.712c-.51-.9.578-.915 1.187-.81-.092-.29-.411-.885-.039-1.366.353-.456 1.13-.034 1.595.235-.148-.438-.292-1.377.312-1.63s1.37.758 1.677 1.294c-.055-1.616.348-1.999.852-1.699 1.88 1.12.761 4.346-.023 5.79-1.428.21-4.92-.69-5.56-1.814"/><mask id="a" width="9" height="7" x="-1" y="0" maskUnits="userSpaceOnUse" style="mask-type:alpha"><path fill="#FF91A0" d="M.107 4.397c-.512-.9.577-.914 1.186-.81-.092-.29-.411-.884-.039-1.365.353-.457 1.13-.035 1.595.235-.148-.438-.293-1.378.312-1.63.604-.253 1.37.757 1.677 1.294-.055-1.617.348-2 .852-1.7 1.88 1.121 1.797 4.53-.023 5.79C2.871 7.267.746 5.522.107 4.397"/></mask><g mask="url(#a)"><path fill="#fff" d="M.55 5.712c-.51-.9.578-.915 1.187-.81-.092-.29-.411-.885-.039-1.366.353-.456 1.13-.034 1.595.235-.148-.438-.292-1.377.312-1.63s1.37.758 1.677 1.294c-.055-1.616.348-1.999.852-1.699 1.88 1.12.761 4.346-.023 5.79-1.428.21-4.92-.69-5.56-1.814"/></g><path fill="#0A3019" fill-rule="evenodd" d="M1.03 5.466a.06.06 0 0 1 .085-.002c.515.483 1.453.918 2.426 1.267.653.234 1.318.427 1.87.568-.478-.221-1.04-.52-1.578-.882-.822-.553-1.6-1.258-1.951-2.065a.06.06 0 1 1 .111-.048c.337.774 1.092 1.463 1.908 2.012.654.44 1.342.786 1.872 1.01-.9-.759-2.453-2.203-3.264-3.456a.06.06 0 1 1 .103-.066c.9 1.39 2.732 3.028 3.537 3.674l-.05.107a21 21 0 0 1-2.6-.74c-.973-.349-1.932-.79-2.467-1.293a.06.06 0 0 1-.003-.086m2.336-1.985a.06.06 0 0 1 .068.053q.016.129.112.32.096.193.254.428c.21.311.491.668.8 1.03A30 30 0 0 0 6.078 6.91c-.4-.668-.901-1.529-1.33-2.316-.263-.483-.5-.94-.668-1.307a6 6 0 0 1-.2-.48 1 1 0 0 1-.07-.318.06.06 0 1 1 .121.006.9.9 0 0 0 .064.272q.068.195.195.47c.168.363.403.817.665 1.299.417.766.904 1.602 1.298 2.262-.178-.537-.387-1.18-.566-1.75-.12-.385-.227-.739-.301-1.004a6 6 0 0 1-.084-.328 1 1 0 0 1-.022-.145q-.001-.016.005-.04a.06.06 0 0 1 .117.036v.003q0 .009.002.025.004.035.017.095c.017.08.046.19.082.321.073.264.18.616.3 1.001.18.574.391 1.221.57 1.76-.07-.689-.167-1.555-.278-2.352-.072-.51-.148-.993-.227-1.383a7 7 0 0 0-.118-.506 1.6 1.6 0 0 0-.114-.311.06.06 0 1 1 .106-.059c.043.079.085.195.125.338s.08.318.12.514c.08.394.157.878.228 1.39.115.82.215 1.712.285 2.411.092-.633.186-1.45.228-2.247.026-.508.031-1.005 0-1.44-.03-.436-.095-.803-.207-1.052a.06.06 0 1 1 .112-.05c.12.27.186.654.217 1.094.03.44.026.944 0 1.454-.026.496-.073 1-.126 1.462.062-.29.122-.595.174-.894.069-.398.123-.788.148-1.126.025-.34.02-.621-.024-.808a.06.06 0 1 1 .118-.029c.05.207.053.505.028.847a12 12 0 0 1-.15 1.136 27 27 0 0 1-.474 2.154l-.027.1-.075-.072a31 31 0 0 1-1.833-1.95c-.31-.365-.596-.725-.809-1.042a4 4 0 0 1-.262-.442 1.2 1.2 0 0 1-.124-.359.06.06 0 0 1 .053-.068" clip-rule="evenodd"/><path fill="#9B9B9B" d="M6.574 6.528c-.035.09-.97.708-1.434 1.006.39.364 1.075.801 1.438.502.405-.334.126-1.188-.004-1.508"/><g style="mix-blend-mode:multiply"><path fill="#FD6565" d="M.55 5.712c-.51-.9.578-.915 1.187-.81-.092-.29-.411-.885-.039-1.366.353-.456 1.13-.034 1.595.235-.148-.438-.292-1.377.312-1.63s1.37.758 1.677 1.294c-.055-1.616.348-1.999.852-1.699 1.88 1.12.761 4.346-.023 5.79-1.428.21-4.92-.69-5.56-1.814"/><mask id="b" width="9" height="7" x="-1" y="0" maskUnits="userSpaceOnUse" style="mask-type:alpha"><path fill="#FF91A0" d="M.107 4.397c-.512-.9.577-.914 1.186-.81-.092-.29-.411-.884-.039-1.365.353-.457 1.13-.035 1.595.235-.148-.438-.293-1.378.312-1.63.604-.253 1.37.757 1.677 1.294-.055-1.617.348-2 .852-1.7 1.88 1.121 1.797 4.53-.023 5.79C2.871 7.267.746 5.522.107 4.397"/></mask><g mask="url(#b)"><path fill="#FD6565" d="M.55 5.712c-.51-.9.578-.915 1.187-.81-.092-.29-.411-.885-.039-1.366.353-.456 1.13-.034 1.595.235-.148-.438-.292-1.377.312-1.63s1.37.758 1.677 1.294c-.055-1.616.348-1.999.852-1.699 1.88 1.12.761 4.346-.023 5.79-1.428.21-4.92-.69-5.56-1.814"/></g><path fill="#FD6565" fill-rule="evenodd" d="M1.03 5.466a.06.06 0 0 1 .085-.002c.515.483 1.453.918 2.426 1.267.653.234 1.318.427 1.87.568-.478-.221-1.04-.52-1.578-.882-.822-.553-1.6-1.258-1.951-2.065a.06.06 0 1 1 .111-.048c.337.774 1.092 1.463 1.908 2.012.654.44 1.342.786 1.872 1.01-.9-.759-2.453-2.203-3.264-3.456a.06.06 0 1 1 .103-.066c.9 1.39 2.732 3.028 3.537 3.674l-.05.107a21 21 0 0 1-2.6-.74c-.973-.349-1.932-.79-2.467-1.293a.06.06 0 0 1-.003-.086m2.336-1.985a.06.06 0 0 1 .068.053q.016.129.112.32.096.193.254.428c.21.311.491.668.8 1.03A30 30 0 0 0 6.078 6.91c-.4-.668-.901-1.529-1.33-2.316-.263-.483-.5-.94-.668-1.307a6 6 0 0 1-.2-.48 1 1 0 0 1-.07-.318.06.06 0 1 1 .121.006.9.9 0 0 0 .064.272q.068.195.195.47c.168.363.403.817.665 1.299.417.766.904 1.602 1.298 2.262-.178-.537-.387-1.18-.566-1.75-.12-.385-.227-.739-.301-1.004a6 6 0 0 1-.084-.328 1 1 0 0 1-.022-.145q-.001-.016.005-.04a.06.06 0 0 1 .117.036v.003q0 .009.002.025.004.035.017.095c.017.08.046.19.082.321.073.264.18.616.3 1.001.18.574.391 1.221.57 1.76-.07-.689-.167-1.555-.278-2.352-.072-.51-.148-.993-.227-1.383a7 7 0 0 0-.118-.506 1.6 1.6 0 0 0-.114-.311.06.06 0 1 1 .106-.059c.043.079.085.195.125.338s.08.318.12.514c.08.394.157.878.228 1.39.115.82.215 1.712.285 2.411.092-.633.186-1.45.228-2.247.026-.508.031-1.005 0-1.44-.03-.436-.095-.803-.207-1.052a.06.06 0 1 1 .112-.05c.12.27.186.654.217 1.094.03.44.026.944 0 1.454-.026.496-.073 1-.126 1.462.062-.29.122-.595.174-.894.069-.398.123-.788.148-1.126.025-.34.02-.621-.024-.808a.06.06 0 1 1 .118-.029c.05.207.053.505.028.847a12 12 0 0 1-.15 1.136 27 27 0 0 1-.474 2.154l-.027.1-.075-.072a31 31 0 0 1-1.833-1.95c-.31-.365-.596-.725-.809-1.042a4 4 0 0 1-.262-.442 1.2 1.2 0 0 1-.124-.359.06.06 0 0 1 .053-.068" clip-rule="evenodd"/><path fill="#FD6565" d="M6.574 6.528c-.035.09-.97.708-1.434 1.006.39.364 1.075.801 1.438.502.405-.334.126-1.188-.004-1.508"/></g><g style="mix-blend-mode:soft-light"><path fill="#FD6565" d="M.55 5.712c-.51-.9.578-.915 1.187-.81-.092-.29-.411-.885-.039-1.366.353-.456 1.13-.034 1.595.235-.148-.438-.292-1.377.312-1.63s1.37.758 1.677 1.294c-.055-1.616.348-1.999.852-1.699 1.88 1.12.761 4.346-.023 5.79-1.428.21-4.92-.69-5.56-1.814"/><mask id="c" width="9" height="7" x="-1" y="0" maskUnits="userSpaceOnUse" style="mask-type:alpha"><path fill="#FF91A0" d="M.107 4.397c-.512-.9.577-.914 1.186-.81-.092-.29-.411-.884-.039-1.365.353-.457 1.13-.035 1.595.235-.148-.438-.293-1.378.312-1.63.604-.253 1.37.757 1.677 1.294-.055-1.617.348-2 .852-1.7 1.88 1.121 1.797 4.53-.023 5.79C2.871 7.267.746 5.522.107 4.397"/></mask><g mask="url(#c)"><path fill="#FD6565" d="M.55 5.712c-.51-.9.578-.915 1.187-.81-.092-.29-.411-.885-.039-1.366.353-.456 1.13-.034 1.595.235-.148-.438-.292-1.377.312-1.63s1.37.758 1.677 1.294c-.055-1.616.348-1.999.852-1.699 1.88 1.12.761 4.346-.023 5.79-1.428.21-4.92-.69-5.56-1.814"/></g><path fill="#FD6565" fill-rule="evenodd" d="M1.03 5.466a.06.06 0 0 1 .085-.002c.515.483 1.453.918 2.426 1.267.653.234 1.318.427 1.87.568-.478-.221-1.04-.52-1.578-.882-.822-.553-1.6-1.258-1.951-2.065a.06.06 0 1 1 .111-.048c.337.774 1.092 1.463 1.908 2.012.654.44 1.342.786 1.872 1.01-.9-.759-2.453-2.203-3.264-3.456a.06.06 0 1 1 .103-.066c.9 1.39 2.732 3.028 3.537 3.674l-.05.107a21 21 0 0 1-2.6-.74c-.973-.349-1.932-.79-2.467-1.293a.06.06 0 0 1-.003-.086m2.336-1.985a.06.06 0 0 1 .068.053q.016.129.112.32.096.193.254.428c.21.311.491.668.8 1.03A30 30 0 0 0 6.078 6.91c-.4-.668-.901-1.529-1.33-2.316-.263-.483-.5-.94-.668-1.307a6 6 0 0 1-.2-.48 1 1 0 0 1-.07-.318.06.06 0 1 1 .121.006.9.9 0 0 0 .064.272q.068.195.195.47c.168.363.403.817.665 1.299.417.766.904 1.602 1.298 2.262-.178-.537-.387-1.18-.566-1.75-.12-.385-.227-.739-.301-1.004a6 6 0 0 1-.084-.328 1 1 0 0 1-.022-.145q-.001-.016.005-.04a.06.06 0 0 1 .117.036v.003q0 .009.002.025.004.035.017.095c.017.08.046.19.082.321.073.264.18.616.3 1.001.18.574.391 1.221.57 1.76-.07-.689-.167-1.555-.278-2.352-.072-.51-.148-.993-.227-1.383a7 7 0 0 0-.118-.506 1.6 1.6 0 0 0-.114-.311.06.06 0 1 1 .106-.059c.043.079.085.195.125.338s.08.318.12.514c.08.394.157.878.228 1.39.115.82.215 1.712.285 2.411.092-.633.186-1.45.228-2.247.026-.508.031-1.005 0-1.44-.03-.436-.095-.803-.207-1.052a.06.06 0 1 1 .112-.05c.12.27.186.654.217 1.094.03.44.026.944 0 1.454-.026.496-.073 1-.126 1.462.062-.29.122-.595.174-.894.069-.398.123-.788.148-1.126.025-.34.02-.621-.024-.808a.06.06 0 1 1 .118-.029c.05.207.053.505.028.847a12 12 0 0 1-.15 1.136 27 27 0 0 1-.474 2.154l-.027.1-.075-.072a31 31 0 0 1-1.833-1.95c-.31-.365-.596-.725-.809-1.042a4 4 0 0 1-.262-.442 1.2 1.2 0 0 1-.124-.359.06.06 0 0 1 .053-.068" clip-rule="evenodd"/><path fill="#FD6565" d="M6.574 6.528c-.035.09-.97.708-1.434 1.006.39.364 1.075.801 1.438.502.405-.334.126-1.188-.004-1.508"/></g><path fill="#2E7A48" d="M9.735 6.54c-1.079 1.113-.742 3.394-.515 4.718.132-.79.562-2.43.931-2.912.526-.686 1.221-1.12 3.103-.237-.566-1.512-2.17-2.96-3.519-1.569"/><path fill="#2E7A48" fill-rule="evenodd" d="M9.805 7.883c-.522.945-.671 2.363-.652 3.377 0 .037.031.066.068.065a.067.067 0 0 0 .065-.068c-.02-1.006.13-2.396.636-3.31.252-.456.587-.785 1.025-.898.439-.113.998-.014 1.707.425a.067.067 0 0 0 .07-.113c-.726-.45-1.323-.566-1.81-.44s-.847.488-1.109.962" clip-rule="evenodd" style="mix-blend-mode:multiply"/><path fill="#2E7A48" d="M4.642 9.026c.985-.32 2.253.553 2.98 1.079C7.11 9.95 6 9.727 5.602 9.806c-.566.114-1.03.403-1.054 1.79-.74-.783-1.136-2.17.094-2.57"/><path fill="#2E7A48" fill-rule="evenodd" d="M5.426 9.463c.72-.035 1.615.292 2.217.602a.045.045 0 0 1-.04.079c-.599-.308-1.476-.626-2.172-.593-.348.017-.644.121-.84.351-.197.23-.302.594-.248 1.148a.044.044 0 0 1-.088.009c-.056-.567.05-.96.268-1.214.219-.255.542-.365.903-.382" clip-rule="evenodd" style="mix-blend-mode:multiply"/><path fill="#2E7A48" d="M20.758 15.206c-.677-1.131-2.626-1.357-3.764-1.462.62.283 1.873.997 2.188 1.407.448.583.652 1.25-.488 2.602 1.367-.132 2.91-1.132 2.064-2.547"/><path fill="#2E7A48" fill-rule="evenodd" d="M19.639 14.969c-.662-.638-1.794-1.073-2.632-1.28a.056.056 0 0 0-.068.041.057.057 0 0 0 .041.069c.832.205 1.94.635 2.58 1.251.32.307.517.655.513 1.04-.004.386-.209.823-.725 1.31a.057.057 0 0 0-.002.08.056.056 0 0 0 .08.002c.528-.497.756-.962.76-1.39s-.215-.804-.547-1.123" clip-rule="evenodd" style="mix-blend-mode:multiply"/><path fill="#2E7A48" d="M17.497 11.383c.19.717-.482 1.59-.885 2.091.129-.361.332-1.146.29-1.434-.06-.41-.249-.753-1.241-.822.589-.5 1.597-.73 1.836.165"/><path fill="#2E7A48" fill-rule="evenodd" d="M17.154 11.928c-.002.516-.27 1.144-.515 1.562a.03.03 0 0 1-.043.012.03.03 0 0 1-.012-.044c.243-.416.505-1.031.507-1.531 0-.25-.062-.465-.22-.614-.156-.15-.413-.239-.811-.22a.032.032 0 0 1-.003-.064c.408-.019.684.072.858.238.175.166.24.401.24.66" clip-rule="evenodd" style="mix-blend-mode:multiply"/></svg>