<svg xmlns="http://www.w3.org/2000/svg" version="1.1" xmlns:xlink="http://www.w3.org/1999/xlink" xmlns:svgjs="http://svgjs.dev/svgjs" width="50" height="50"><svg width="50" height="50" viewBox="0 0 50 50" fill="none" xmlns="http://www.w3.org/2000/svg">
<rect width="50" height="50" rx="10" fill="#463E33"></rect>
<path d="M21.9957 27.5128C21.9957 27.5128 6.45403 33.0838 9.38455 35.7739C12.3151 38.4641 23.8883 29.0391 23.8883 29.0391C23.8883 29.0391 16.2987 38.6968 20.0267 40.3414C23.7547 41.986 24.7888 29.8671 24.7888 29.8671C24.7888 29.8671 21.1905 44.2984 25.9335 42.9629C30.6766 41.6273 26.5441 29.0391 26.5441 29.0391C26.5441 29.0391 32.1342 40.868 35.4272 39.4104C38.7202 37.9528 28.4558 27.7341 28.4558 27.7341C28.4558 27.7341 38.6401 36.705 41.4294 33.122C44.2187 29.539 28.4558 25.7728 28.4558 25.7728C28.4558 25.7728 42.4635 29.5886 43.4632 25.7728C44.4629 21.957 29.0968 24.9829 29.0968 24.9829C29.0968 24.9829 44.5774 20.1636 41.9941 16.9393C39.4108 13.715 27.975 23.8993 27.975 23.8993C27.975 23.8993 40.9486 14.2988 38.5943 11.7193C36.2399 9.13986 27.0592 23.201 27.0592 23.201C27.0592 23.201 36.011 8.49118 32.0808 7.67079C28.1505 6.8504 25.2963 23.449 25.2963 23.449C25.2963 23.449 27.643 5.2058 22.6787 7.14421C17.7144 9.08263 24.1058 23.8993 24.1058 23.8993C24.1058 23.8993 16.4819 9.1971 13.3224 11.1966C10.163 13.196 23.2625 25.334 23.2625 25.334C23.2625 25.334 11.8457 14.6498 8.79692 16.8782C5.74812 19.1067 22.5337 25.7003 22.5337 25.7003C22.5337 25.7003 7.65219 22.0295 7.01877 26.0819C6.38535 30.1342 21.9957 27.5128 21.9957 27.5128Z" fill="#EDC06F"></path>
<path d="M24.8498 25.04C24.8498 25.04 23.064 20.69 25.2314 20.1634C27.3988 19.6369 25.7847 25.3949 25.7427 25.1659C25.7007 24.937 26.7615 20.8465 29.4516 21.56C32.1418 22.2736 26.296 25.5208 26.296 25.5208C26.296 25.5208 28.9251 23.6396 30.8749 24.9828C32.8248 26.3259 26.5249 26.1542 26.5249 26.1542C26.5249 26.1542 30.1652 25.8757 30.4209 28.1231C30.6765 30.3706 26.38 26.4747 26.38 26.4747C26.38 26.4747 29.5661 30.1722 27.5247 31.1529C25.4832 32.1335 25.6626 26.7113 25.6626 26.7113C25.6626 26.7113 25.9717 30.7484 23.8921 30.4698C21.8125 30.1913 25.1055 26.7113 25.1055 26.7113C25.1055 26.7113 21.74 29.5274 21.3966 27.6004C21.0531 25.6734 24.4492 26.2382 24.4492 26.2382C24.4492 26.2382 19.5383 25.0629 20.8852 23.0825C22.2322 21.1021 24.8498 25.04 24.8498 25.04Z" fill="#F58548"></path>
</svg><style>@media (prefers-color-scheme: light) { :root { filter: none; } }
@media (prefers-color-scheme: dark) { :root { filter: none; } }
</style></svg>